<svg xmlns="http://www.w3.org/2000/svg" viewBox="0 0 1024 1024" role="img" aria-label="cultured icon">
  <defs>
    <linearGradient id="bg" x1="0" y1="0" x2="1" y2="1"><stop stop-color="#ff5d7a"/><stop offset="1" stop-color="#ffd166"/></linearGradient>
    <linearGradient id="ink" x1="0" y1="0" x2="1" y2="1"><stop stop-color="#EFE9DA"/><stop offset="1" stop-color="#FBF7EC"/></linearGradient>
  </defs>
  <rect width="1024" height="1024" rx="236" fill="#0A0A09"/>
  <circle cx="512" cy="512" r="360" fill="url(#bg)" opacity=".18"/>
  <path d="M700 264a326 326 0 1 0 0 496" fill="none" stroke="url(#ink)" stroke-width="42" stroke-linecap="round"/>
  <path d="M647 347a220 220 0 1 0 0 330" fill="none" stroke="url(#ink)" stroke-width="34" stroke-linecap="round"/>
  <path d="M590 422a112 112 0 1 0 0 180" fill="none" stroke="url(#ink)" stroke-width="30" stroke-linecap="round"/>
  <path d="M493 510c-22-34-76-20-76 23 0 45 76 88 76 88s76-43 76-88c0-43-54-57-76-23Z" fill="#ff5d7a" stroke="#EFE9DA" stroke-width="12"/>
</svg>
